<?xml version="1.0" encoding="UTF-8"?>
<svg id="Capa_1" xmlns="http://www.w3.org/2000/svg" xmlns:xlink="http://www.w3.org/1999/xlink" version="1.1" viewBox="0 0 265.68 221.35">
  <!-- Generator: Adobe Illustrator 30.3.0, SVG Export Plug-In . SVG Version: 2.1.3 Build 182)  -->
  <defs>
    <style>
      .st0 {
        fill: url(#Degradado_sin_nombre_7);
      }

      .st1 {
        fill: url(#Degradado_sin_nombre_8);
      }

      .st2 {
        fill: url(#Degradado_sin_nombre_9);
      }
    </style>
    <linearGradient id="Degradado_sin_nombre_7" data-name="Degradado sin nombre 7" x1="69.68" y1="149.54" x2="196.17" y2="149.54" gradientTransform="translate(0 224) scale(1 -1)" gradientUnits="userSpaceOnUse">
      <stop offset=".2" stop-color="#80e3f6"/>
      <stop offset=".47" stop-color="#50bef7"/>
      <stop offset=".83" stop-color="#1693f8"/>
      <stop offset="1" stop-color="#0082f9"/>
    </linearGradient>
    <linearGradient id="Degradado_sin_nombre_8" data-name="Degradado sin nombre 8" x1="0" y1="62.03" x2="152.82" y2="62.03" gradientTransform="translate(0 224) scale(1 -1)" gradientUnits="userSpaceOnUse">
      <stop offset=".2" stop-color="#80e3f6"/>
      <stop offset=".47" stop-color="#50bef7"/>
      <stop offset=".83" stop-color="#1693f8"/>
      <stop offset="1" stop-color="#0082f9"/>
    </linearGradient>
    <linearGradient id="Degradado_sin_nombre_9" data-name="Degradado sin nombre 9" x1="126.2" y1="56.29" x2="265.68" y2="56.29" gradientTransform="translate(0 224) scale(1 -1)" gradientUnits="userSpaceOnUse">
      <stop offset=".2" stop-color="#80e3f6"/>
      <stop offset=".47" stop-color="#50bef7"/>
      <stop offset=".83" stop-color="#1693f8"/>
      <stop offset="1" stop-color="#0082f9"/>
    </linearGradient>
  </defs>
  <g id="Capa_5">
    <polygon class="st0" points="196.17 104.7 132.82 0 117.76 24.88 150.56 78.96 137.32 78.96 111.15 35.85 108.94 39.54 132.9 78.96 69.68 78.96 112.02 148.91 127.03 124.16 115.29 104.7 196.17 104.7"/>
    <polygon class="st1" points="152.82 153.08 122.83 153.07 112.02 170.95 70.76 102.58 0 219.5 30.13 219.5 70.65 152.53 77.25 163.58 43.38 219.5 47.61 219.49 79.46 167.27 111.79 221.35 152.82 153.08"/>
    <polygon class="st2" points="265.68 219.34 250.02 193.61 171.54 193.61 178.33 182.25 243.14 182.25 240.85 178.47 180.59 178.47 217.88 116.09 135.39 116.09 150.84 141.83 172.48 141.83 126.2 219.34 265.68 219.34"/>
  </g>
</svg>