<?xml version="1.0" encoding="UTF-8"?>
<svg id="Capa_1" xmlns="http://www.w3.org/2000/svg" xmlns:xlink="http://www.w3.org/1999/xlink" version="1.1" viewBox="0 0 1517.78 236.01">
  <!-- Generator: Adobe Illustrator 30.3.0, SVG Export Plug-In . SVG Version: 2.1.3 Build 182)  -->
  <defs>
    <style>
      .st0 {
        fill: #fff;
      }

      .st1 {
        fill: url(#Degradado_sin_nombre_6);
      }

      .st2 {
        fill: url(#Degradado_sin_nombre_5);
      }

      .st3 {
        fill: url(#Degradado_sin_nombre_4);
      }
    </style>
    <linearGradient id="Degradado_sin_nombre_4" data-name="Degradado sin nombre 4" x1="69.68" y1="163.54" x2="196.17" y2="163.54" gradientTransform="translate(0 238) scale(1 -1)" gradientUnits="userSpaceOnUse">
      <stop offset=".2" stop-color="#80e3f6"/>
      <stop offset=".47" stop-color="#50bef7"/>
      <stop offset=".83" stop-color="#1693f8"/>
      <stop offset="1" stop-color="#0082f9"/>
    </linearGradient>
    <linearGradient id="Degradado_sin_nombre_5" data-name="Degradado sin nombre 5" x1="0" y1="76.03" x2="152.82" y2="76.03" gradientTransform="translate(0 238) scale(1 -1)" gradientUnits="userSpaceOnUse">
      <stop offset=".2" stop-color="#80e3f6"/>
      <stop offset=".47" stop-color="#50bef7"/>
      <stop offset=".83" stop-color="#1693f8"/>
      <stop offset="1" stop-color="#0082f9"/>
    </linearGradient>
    <linearGradient id="Degradado_sin_nombre_6" data-name="Degradado sin nombre 6" x1="126.2" y1="70.29" x2="265.68" y2="70.29" gradientTransform="translate(0 238) scale(1 -1)" gradientUnits="userSpaceOnUse">
      <stop offset=".2" stop-color="#80e3f6"/>
      <stop offset=".47" stop-color="#50bef7"/>
      <stop offset=".83" stop-color="#1693f8"/>
      <stop offset="1" stop-color="#0082f9"/>
    </linearGradient>
  </defs>
  <g id="Capa_4">
    <g>
      <path class="st0" d="M413.3,176.87v-17.65c0-1.27-.18-2.91,2-4.37l108.45-78.42v-1.82h-107.54c-1.82,0-2.73-1.09-2.73-2.91v-16.38c0-1.82.91-2.91,2.73-2.91h141.38c1.82,0,2.91,1.09,2.91,2.91v17.65c0,1.27.18,2.91-2,4.37l-108.45,78.42v1.82h107.72c1.82,0,2.91,1.09,2.91,2.91v16.38c0,1.82-1.09,2.91-2.91,2.91h-141.57c-1.82,0-2.91-1.09-2.91-2.91h.01Z"/>
      <path class="st0" d="M581.61,146.66V55.32c0-1.82,1.09-2.91,2.91-2.91h19.47c1.82,0,2.73,1.09,2.73,2.91v89.52c0,9.46,4.18,12.74,13.1,12.74h87.71c8.73,0,13.1-3.28,13.1-12.74V55.32c0-1.82.73-2.91,2.55-2.91h19.65c1.82,0,2.73,1.09,2.73,2.91v91.34c0,20.93-10.01,33.12-32.57,33.12h-98.8c-22.56,0-32.57-12.19-32.57-33.12h0Z"/>
      <path class="st0" d="M769.21,176.87V55.32c0-1.82,1.09-2.91,2.91-2.91h118.27c22.56,0,32.57,12.19,32.57,33.12v35.12c0,20.74-10.01,32.93-32.57,32.93h-96.08v23.29c0,1.82-.91,2.91-2.73,2.91h-19.47c-1.82,0-2.91-1.09-2.91-2.91h0ZM794.32,74.61v56.95h90.43c8.92,0,13.1-3.46,13.1-13.1v-31.12c0-9.46-4.18-12.74-13.1-12.74h-90.43Z"/>
      <path class="st0" d="M945.7,176.87V55.32c0-1.82,1.09-2.91,2.91-2.91h142.29c1.82,0,2.73.91,2.73,2.73v16.74c0,1.82-.91,2.73-2.73,2.73h-120.09v30.57h118.27c1.82,0,2.73.91,2.73,2.73v16.38c0,1.82-.91,2.73-2.73,2.73h-118.27v30.57h121c1.82,0,2.73.91,2.73,2.73v16.74c0,1.82-.91,2.73-2.73,2.73h-143.2c-1.82,0-2.91-1.09-2.91-2.91h0Z"/>
      <path class="st0" d="M1116.38,176.87V55.32c0-1.82,1.09-2.91,2.91-2.91h118.27c22.56,0,32.57,12.19,32.57,33.12v27.29c0,16.19-6,27.11-19.11,31.3l20.74,31.3c1.64,2.37-.36,4.37-3.28,4.37h-17.83c-2.18,0-3.46-1.09-4.73-2.91l-20.93-30.93h-83.52v30.93c0,1.82-.91,2.91-2.73,2.91h-19.47c-1.82,0-2.91-1.09-2.91-2.91h.02ZM1141.49,74.61v49.13h90.43c9.1,0,13.1-3.46,13.1-12.92v-23.47c0-9.46-4-12.74-13.1-12.74,0,0-90.43,0-90.43,0Z"/>
      <path class="st0" d="M1295.06,176.87V55.32c0-1.82,1.09-2.91,2.91-2.91h19.47c1.82,0,2.73,1.09,2.73,2.91v121.55c0,1.82-.91,2.91-2.73,2.91h-19.47c-1.82,0-2.91-1.09-2.91-2.91Z"/>
      <path class="st0" d="M1342.92,147.39v-62.6c0-20.93,11.28-33.12,33.84-33.12h96.44c22.56,0,33.66,12.19,33.66,33.12v62.6c0,20.92-11.1,33.12-33.66,33.12h-96.44c-22.56,0-33.84-12.19-33.84-33.12ZM1467.56,158.31c9.1,0,14.38-3.28,14.38-12.74v-58.96c0-9.46-5.28-12.74-14.38-12.74h-85.34c-8.92,0-14.19,3.28-14.19,12.74v58.96c0,9.46,5.28,12.74,14.19,12.74h85.34Z"/>
    </g>
    <polygon class="st3" points="196.17 104.7 132.82 0 117.76 24.88 150.56 78.96 137.32 78.96 111.15 35.85 108.94 39.54 132.9 78.96 69.68 78.96 112.02 148.91 127.03 124.16 115.29 104.7 196.17 104.7"/>
    <polygon class="st2" points="152.82 153.08 122.83 153.07 112.02 170.95 70.76 102.58 0 219.5 30.13 219.5 70.65 152.53 77.25 163.58 43.38 219.5 47.61 219.49 79.46 167.27 111.79 221.35 152.82 153.08"/>
    <polygon class="st1" points="265.68 219.34 250.02 193.61 171.54 193.61 178.33 182.25 243.14 182.25 240.85 178.47 180.59 178.47 217.88 116.09 135.39 116.09 150.84 141.83 172.48 141.83 126.2 219.34 265.68 219.34"/>
  </g>
</svg>